<svg width="10" height="18" viewBox="0 0 10 18" fill="none" xmlns="http://www.w3.org/2000/svg">
<path d="M8.4231 0.475379C8.71052 0.474818 8.98907 0.57492 9.21038 0.758309C9.33495 0.861577 9.43791 0.988406 9.51338 1.13153C9.58885 1.27465 9.63535 1.43125 9.6502 1.59237C9.66506 1.75349 9.64798 1.91596 9.59995 2.07046C9.55192 2.22497 9.47388 2.36849 9.3703 2.49279L3.85932 9.08628L9.17348 15.6921C9.27566 15.8179 9.35197 15.9627 9.39801 16.1181C9.44406 16.2735 9.45894 16.4365 9.44179 16.5977C9.42464 16.7589 9.37581 16.9151 9.2981 17.0573C9.22039 17.1996 9.11533 17.325 8.98896 17.4266C8.86168 17.5385 8.71263 17.623 8.55117 17.6747C8.3897 17.7263 8.21929 17.744 8.05065 17.7267C7.88201 17.7094 7.71877 17.6574 7.57117 17.574C7.42358 17.4906 7.29482 17.3776 7.19297 17.242L1.25145 9.86127C1.07052 9.64115 0.971612 9.36506 0.971612 9.08013C0.971612 8.7952 1.07052 8.51911 1.25145 8.299L7.40209 0.918227C7.5255 0.769361 7.68226 0.651681 7.85965 0.574739C8.03705 0.497794 8.23009 0.463754 8.4231 0.475379Z" fill="#0098EE"/>
</svg>
