<svg width="17" height="21" viewBox="0 0 17 21" fill="none" xmlns="http://www.w3.org/2000/svg">
<path fill-rule="evenodd" clip-rule="evenodd" d="M11.0023 0.796306C10.2616 0.277116 9.39081 0 8.5 0C7.30547 0 6.15986 0.497812 5.31519 1.38392C4.47053 2.27003 3.996 3.47185 3.996 4.725C3.996 5.65952 4.26016 6.57305 4.75506 7.35007C5.24997 8.1271 5.9534 8.73271 6.77639 9.09034C7.59939 9.44796 8.505 9.54153 9.37869 9.35922C10.2524 9.1769 11.0549 8.72689 11.6848 8.06608C12.3147 7.40528 12.7437 6.56337 12.9175 5.64681C13.0912 4.73024 13.002 3.7802 12.6611 2.91682C12.3203 2.05344 11.743 1.3155 11.0023 0.796306ZM1.98656 14.1129C1.05132 15.0817 0.517285 16.3978 0.5 17.7765C2.69509 19.8516 5.54516 21 8.5 21C11.4548 21 14.3049 19.8516 16.5 17.7765C16.4827 16.3978 15.9486 15.0817 15.0134 14.113C14.0782 13.1442 12.817 12.6007 11.5027 12.6H5.49733C4.18302 12.6007 2.92179 13.1442 1.98656 14.1129Z" fill="#0098EE"/>
</svg>
